# xmcd
#
# Track frame offsets: 
#        183
#        10493
#        20863
#        32350
#        43113
#        54483
#        66915
#        78660
#        89533
#        99780
#        110903
#        119875
#        130583
#        143943
#        153670
#        164013
#        175583
#        186293
#        197425
#        210083
#        221360
#        232158
#        243383
#        256040
#
# Disc length: 3561 seconds
#
# Revision: 0
# Processed by: cddbd v1.5.2PL0 Copyright (c) Steve Scherf et al.
# Submitted via: ExactAudioCopy v0.95b4
#
DISCID=560de718
DTITLE=Smiley Lewis - Volume Two
DYEAR=2000
DGENRE=Blues
TTITLE0=Down The Road
TTITLE1=The Rocks
TTITLE2=Real Gone Lover
TTITLE3=Lost Weekend
TTITLE4=Bumpity Bump
TTITLE5=I Hear You Knocking
TTITLE6=Queen Of Hearts
TTITLE7=Come On
TTITLE8=Rootin' And Tootin'
TTITLE9=One Night
TTITLE10=Shame, Shame, Shame
TTITLE11=Please Listen To Me
TTITLE12=Down Yonder We Go Ballin'
TTITLE13=Go On Fool
TTITLE14=Bad Luck Blues
TTITLE15=Stormy Monday Blues
TTITLE16=My Baby Was Right (ALT)
TTITLE17=Growing Old
TTITLE18=Lowdown
TTITLE19=Where Were You
TTITLE20=Dirty People
TTITLE21=Sad Life
TTITLE22=Bee's Boogie
TTITLE23=The Bells Are Ringing
EXTD=
EXTT0=
EXTT1=
EXTT2=
EXTT3=
EXTT4=
EXTT5=
EXTT6=
EXTT7=
EXTT8=
EXTT9=
EXTT10=
EXTT11=
EXTT12=
EXTT13=
EXTT14=
EXTT15=
EXTT16=
EXTT17=
EXTT18=
EXTT19=
EXTT20=
EXTT21=
EXTT22=
EXTT23=
PLAYORDER=
